<?xml version="1.0" encoding="utf-8"?>
<!-- Generator: Adobe Illustrator 24.3.0, SVG Export Plug-In . SVG Version: 6.00 Build 0)  -->
<svg version="1.1" id="Capa_1" xmlns="http://www.w3.org/2000/svg" xmlns:xlink="http://www.w3.org/1999/xlink" x="0px" y="0px"
	 viewBox="0 0 507.7 595" style="enable-background:new 0 0 507.7 595;" xml:space="preserve">
<style type="text/css">
	.st0{fill:#B22222;}
</style>
<path class="st0" d="M276.9,368.4c-2.6-35.3-4.6-66.1-7.3-96.9c-1.7-19.8-4-39.7-7.2-59.3c-0.6-3.9-8-10.6-9.6-9.9
	c-8.8,3.9-16.6,10-25.1,14.6c-11.8,6.4-23.8,12.2-35.8,18.1c-9.1,4.5-18.5,8.6-27.3,13.6c-3.9,2.2-6.7,6.4-10,9.6
	c-0.8,0.7-1.7,1.4-2.6,2c-0.1-0.4-0.5-1.1-0.3-1.2c0.5-0.4,1.2-0.4,1.6-0.8s0.3-0.9,0.4-1.4c-0.6,0-1.2,0.1-1.8,0.2
	c-6.8,3.7-13.3,8-20.4,10.9c-6.3,2.7-13.3,3.8-19.8,5.9c-8.4,2.7-16.6,6.5-25.2,8.4c-5.4,1.2-11.1,0.9-16.4-0.7
	c-6.4-2.1-12.2-6.4-18.2-9.7c-3.4-1.9-8.3-2.8-10.1-5.6c-3.4-5.3-8.4-12.9-6.7-17.2c2.5-6.5,9.3-13.6,15.8-15.8
	c17.5-5.9,36.1-8.6,53.8-13.9c18.7-5.6,37.1-12.3,55.3-19.3c8.7-3.4,16.6-9.1,25.1-13.2c11-5.3,22.3-9.8,33.2-15.2
	c7.1-3.5,13.5-8.3,20.5-11.9c18.5-9.6,37.7-18.1,55.8-28.5c12.7-7.3,24-16.8,35.9-25.5c13.6-9.9,27.2-19.9,40.7-30
	c21.3-15.9,42.1-32.6,64.2-47.5c16-10.7,33.6-19,50.6-28.2c0.8-0.4,2.6,0.9,3.9,1.4c0.6,0.2,1.3,0.3,2,0.3c20.9-1,13.8,14,14.3,24.8
	c0.1,1.7,1.8,3.5,1.4,4.9c-1,3.1-3.2,5.9-4.2,9c-4,12-8.7,23.9-11.2,36.2c-6.5,32.1-12.4,64.4-17.8,96.7c-3.2,19-5.1,38.2-7.4,57.4
	c-1.1,8.8-1.6,17.7-2.6,26.5c-1.6,13.4-2.5,27-5.6,40.1c-1.1,4.5-7.9,10.6-12,10.6s-11.6-6.8-11.7-10.7c-0.3-14,1.7-28,3.1-41.9
	c3-27.6,6.1-55.1,9.3-82.7c1.1-9.1,2.1-18.3,3.7-27.3c3.7-20.7,7.9-41.3,11.3-62.1c0.8-4.6-0.6-9.6-1-14.4
	c-5.4,4.4-10.6,8.9-16.1,13.2c-5.1,4-10.4,7.6-15.4,11.7c-3.1,2.5-5.5,5.9-8.7,8.1c-6.4,4.4-13.4,8-19.8,12.4
	c-3.2,2.2-5.5,5.7-8.6,8c-12.9,9.4-25.9,18.5-38.9,27.7c-7.6,5.4-15,11-22.8,16c-2.6,1.7-6.5,1.3-9.2,3
	c-11.5,7.3-26.8,12.7-32.8,23.3c-4.9,8.5,1.7,23.4,2.9,35.5c1.9,20,3.6,40,5.3,60c1.6,17.6,2.8,35.3,5,52.9c1,8.3,4,23.3,6.1,23.3
	c14.5,0.1,29.1-3,43.7-5.1c7.9-1.1,15.7-2.4,23.5-3.4c11-1.5,22.1-3.7,33.2-3.9c11.7-0.2,23.5,1.2,35.1,2.8c1.4,0.2,3.7,7.1,2.6,9.2
	c-2.1,3.8-6.1,7.7-10.1,9c-7.8,2.6-16.2,3.9-24.4,5c-11.4,1.5-22.9,1.9-34.4,3.3c-10.8,1.3-21.5,3.2-32.2,5.1
	c-10,1.8-21.2,1.9-29.6,6.7c-5,2.8-7.8,13.3-7.7,20.4c0.2,16.2,2.5,32.4,4.2,48.6c1.2,11.4,3,22.8,4.2,34.1
	c1.5,13.4,2.3,26.9,4.1,40.2s5.1,26.8,6.1,40.3c0.4,5.5-2.3,14.5-6.1,16.2c-7,3.1-15.9,2.6-24,2.3c-5.5-0.2-11.1-2.4-16.4-4.5
	c-4.7-1.9-8.9-5.2-13.5-7.4c-10.8-5.1-22-9.4-32.5-14.8c-10-5.1-19.2-11.6-29-17c-11-6.1-22.3-11.5-33.5-17.3
	c-4.1-2.2-8.1-4.6-12.2-6.9c-15.2-8.8-30.5-17.6-45.5-26.7c-10.3-6.2-20-13.3-30.3-19.4c-9.8-5.9-20.3-10.6-30.1-16.5
	c-11.3-6.7-22.5-13.6-33-21.3c-4.1-3-6.7-8.4-9.4-13c-4-6.8-7.4-13.8-11-20.7c-0.1-0.2-0.1-0.7,0-0.8c5.6-4.2,11-11.4,17-11.9
	c14.7-1.2,29.8,1.6,44.6,0.9s29.8-4,44.7-5.5c13.6-1.4,27.4-1.4,41.1-3c18.5-2.1,36.9-5.2,55.4-7.8c16.4-2.3,32.9-4.3,49.3-6.9
	C260.8,372.7,269.3,370.2,276.9,368.4z M196.6,495.1c-1.3-0.4,0.4-0.2,1.7,0.6c3.6,2.4,7,5.1,10.6,7.4c3,1.9,6.4,3.1,9.6,4.9
	c8.7,4.8,17.3,9.6,26,14.4c1.7,1,3.7,1.6,5.4,2.7c6.4,4,12.5,8.4,19.1,12.1c5.9,3.3,12.2,5.9,18.3,8.8l5.9,2.8
	c0.8-2.2,2.3-4.5,2.1-6.6c-0.6-5.8-2.2-11.5-2.9-17.2c-2.5-23.5-4.9-46.9-7.2-70.4c-1.3-13.8-1.7-27.7-3.8-41.4
	c-0.8-5.3-4.8-13.8-8.3-14.3c-8-1.1-16.4,2.1-24.8,3.2c-22.3,2.8-44.7,5.5-67,8c-29.9,3.4-59.9,6.7-89.8,10.1
	c-4.4,0.5-8.9,1.4-13.3,2.1c2.4,3.5,4.2,7.9,7.4,10.4c2.3,1.7,7.4-0.3,9.7,1.5c7.4,5.6,13.9,12.5,21.3,18.2c2,1.6,5.9,0.8,8.8,1.4
	c1.7,0.5,3.4,1,5,1.7c-0.4,0.3-0.9,0.6-1.4,0.9c-1,0.4-2.1,0.6-3.2,1c1.2,0.3,2.4,0.7,3.5,1.2c7.1,3.5,14.3,6.8,21.3,10.5
	c4.5,2.4,8.5,5.6,12.9,8.2s8.6,4.8,12.9,7.2C182.4,487.4,188.2,490.6,196.6,495.1z"/>
</svg>
